<svg version="1.1" xmlns="http://www.w3.org/2000/svg" xmlns:xlink="http://www.w3.org/1999/xlink" width="147.3871" height="57.41095" viewBox="0,0,147.3871,57.41095"><g transform="translate(-128.36343,-151.29455)"><g data-paper-data="{&quot;isPaintingLayer&quot;:true}" fill-rule="nonzero" stroke-linecap="butt" stroke-linejoin="miter" stroke-miterlimit="10" stroke-dasharray="" stroke-dashoffset="0" style="mix-blend-mode: normal"><text transform="translate(128.61343,185.67679) scale(0.5,0.5)" font-size="40" xml:space="preserve" fill="#ffffff" fill-rule="nonzero" stroke="none" stroke-width="1" stroke-linecap="butt" stroke-linejoin="miter" stroke-miterlimit="10" stroke-dasharray="" stroke-dashoffset="0" font-family="Sans Serif" font-weight="normal" text-anchor="start" style="mix-blend-mode: normal"><tspan x="0" dy="0">Scratch</tspan></text><path d="M206.99947,201.92922c0,-10.07385 0,-36.01577 0,-42.36813c0,-2.73469 1.67092,-5.51654 3.61181,-5.51654c6.80023,0 46.47286,0 58.76183,0c2.28856,0 3.62742,1.37702 3.62742,2.96168c0,5.12423 0,33.06551 0,44.28428c0,2.88569 -2.12753,4.66499 -5.96938,4.66499c-7.98766,0 -39.16442,0 -53.2263,0c-4.29903,0 -6.80539,-1.52336 -6.80539,-4.02627z" fill="#ff6500" stroke="#000000" stroke-width="5.5"/><path d="M253.01506,189.11136c-1.59415,4.41723 -5.92747,7.10211 -12.87658,7.98062c-0.31587,0.03948 -0.6268,0.06416 -0.93774,0.07403c-0.40471,0.59225 -0.9328,1.10554 -1.55467,1.50531c-1.6287,1.04138 -3.15375,1.54973 -4.65906,1.54973c-3.09453,0 -6.42595,-2.30979 -6.42595,-7.38343c0,-0.34548 0.01481,-0.79461 0.04935,-1.41647c0.01481,-0.26651 0.02961,-0.4738 0.03455,-0.6268c-0.0839,-0.38496 -0.12832,-0.77487 -0.12832,-1.1697v-2.38876c0,-0.3899 0.03948,-0.7798 0.11845,-1.1697c0.00494,-0.33068 0.01974,-0.70083 0.04442,-1.10554c-0.11845,-0.43432 -0.20729,-0.93774 -0.20729,-1.50038c0,-0.25664 0.01974,-0.51329 0.05429,-0.76499c0.18755,-1.3227 0.77487,-2.65034 1.76689,-3.71146c-0.34055,-0.95254 -0.51822,-1.95937 -0.51822,-2.99088v-2.51708c0,-1.02164 0.20235,-2.29498 1.19438,-5.46354c0.41458,-1.36218 0.54783,-1.78663 0.73045,-2.18147c0.97228,-2.18147 2.43811,-3.2722 3.50417,-3.81017c1.74221,-0.86864 3.61275,-1.31283 5.55731,-1.31283c0.89825,0 1.75702,0.09377 2.5763,0.27145c0.36522,-0.24677 0.75512,-0.45406 1.1697,-0.6268c0.52809,-0.22703 1.09073,-0.38496 1.7126,-0.48367c1.55467,-0.26651 3.19817,0.06416 4.62945,0.9328c1.50531,0.91799 3.23272,2.82308 3.02049,6.74182c-0.03455,0.69096 -0.09377,1.61389 -0.18261,2.81814c-0.00494,0.02961 -0.00494,0.05923 -0.00987,0.08884c-0.07897,0.87357 -0.19248,2.17653 -0.34548,3.899c0.03948,0.66629 0.02468,1.41154 -0.03455,2.29005c-0.02468,0.33561 -0.07897,0.67122 -0.16781,0.99696c-0.01974,0.07403 -0.03948,0.14313 -0.05923,0.20729c0.66629,0.85383 1.12035,1.70767 1.43128,2.44798c0.29119,0.58732 0.53796,1.26347 0.75512,2.08769c0.0839,0.31093 0.13819,0.6268 0.16287,0.94761c0.2221,2.76879 0.10858,4.40242 -0.40471,5.78435z" fill="#ffffff" stroke="none" stroke-width="1"/><path d="M248.00854,183.7633c0.14461,1.79502 0.115,2.95189 -0.08686,3.47307c-0.84001,2.37346 -3.6621,3.86347 -8.46528,4.47152c-1.62129,0.20285 -3.2416,-0.56412 -4.8629,-2.30091c0,0.26059 0.05774,1.04187 0.17422,2.34483c0.08686,0.95501 0.07206,1.73629 -0.04343,2.34384c-0.72403,0.46295 -1.30246,0.69491 -1.73678,0.69491c-0.66629,0 -0.99844,-0.65099 -0.99844,-1.95394c0,-0.23147 0.01431,-0.60015 0.04343,-1.10653c0.02863,-0.50588 0.04343,-0.86074 0.04343,-1.06359c0,-0.49206 -0.04343,-0.83903 -0.1303,-1.04187v-2.38777c0,-0.05774 0.01431,-0.12289 0.04343,-0.19544c0.02863,-0.07206 0.05774,-0.13721 0.08686,-0.19544c-0.02912,-0.40471 -0.01481,-1.02707 0.04343,-1.86659c0.05774,-0.52118 0.05774,-0.85334 0,-0.99844c-0.1451,-0.28872 -0.21667,-0.46245 -0.21667,-0.52069c0.115,-0.8104 0.70922,-1.2156 1.77972,-1.2156c0.69442,0 1.11393,0.24628 1.25903,0.73785c0,0.46295 0.05774,1.14354 0.17373,2.04031c0.17422,1.04187 0.72354,2.08424 1.64992,3.12562c1.01275,1.18698 1.98208,1.73678 2.90895,1.64992c1.04187,-0.115 2.08375,-0.36127 3.12562,-0.73785c1.44707,-0.52118 2.31522,-1.12874 2.60493,-1.82315c0.20186,-0.52118 0.30353,-1.0705 0.30353,-1.64992c0,-1.76492 -0.65099,-3.08219 -1.95345,-3.95033c-0.57942,-0.37608 -1.64992,-0.6801 -3.21298,-0.91207c-0.89726,-0.115 -1.44757,-0.17373 -1.64943,-0.17373c-1.38933,0.02912 -2.68488,-0.41951 -3.88568,-1.3459c-1.20129,-0.92589 -1.80144,-1.99738 -1.80144,-3.21298v-2.51757c0,-0.54932 0.31834,-1.83747 0.9555,-3.86347c0.28872,-0.9555 0.44814,-1.46139 0.47775,-1.51962c0.2601,-0.60755 0.59275,-1.01275 0.99795,-1.2156c0.98363,-0.49157 2.02551,-0.73785 3.12562,-0.73785c2.14149,0 3.71886,0.86815 4.73211,2.60444c0.08686,0.08686 0.23147,0.21716 0.43432,0.39089c0.02863,-0.40471 0.08686,-1.02707 0.17373,-1.86659c-0.02912,-0.37608 -0.05824,-0.73785 -0.08686,-1.08531c0,-0.40471 0.20186,-0.67961 0.60755,-0.82471c0.11549,-0.05774 0.2749,-0.10118 0.47775,-0.1303c0.28922,-0.05774 0.60064,0.01481 0.93379,0.21667c0.33216,0.20285 0.46985,0.81089 0.41211,1.82315c-0.02912,0.63667 -0.08686,1.53394 -0.17373,2.6913c-0.08686,0.9555 -0.21667,2.41689 -0.39089,4.38515c0.05774,0.46295 0.05774,1.10011 0,1.91002c-0.1451,0.54981 -0.57942,0.82471 -1.30246,0.82471c-0.37657,0 -0.73785,-0.10118 -1.08531,-0.30353c-0.17373,-0.54932 -0.2601,-0.78178 -0.2601,-0.69491c0.05725,-0.78128 -0.10167,-1.82315 -0.47775,-3.12562c-0.31883,-0.6653 -0.75957,-1.6129 -1.32418,-2.84331c-0.56462,-1.22991 -1.30987,-1.8888 -2.23576,-1.97566c-1.15786,-0.08686 -1.91002,0.30402 -2.25747,1.17217c-0.11549,0.37657 -0.2754,0.92688 -0.47726,1.64992c-0.34746,1.07099 -0.56462,2.09855 -0.65148,3.08219c-0.02912,0.31883 -0.05824,0.44913 -0.08686,0.39089c0.08686,0.57942 0.18804,1.15786 0.30402,1.73678c0.14461,0.72354 0.49947,1.27384 1.06359,1.64943c0.56462,0.37657 1.64202,0.60755 3.2342,0.69442c3.9069,0.23246 6.3233,1.59267 7.24968,4.08112c0.14412,0.23197 0.28872,0.62236 0.43383,1.17168z" fill="#ff6500" stroke="none" stroke-width="1"/></g></g></svg>