<svg version="1.1" xmlns="http://www.w3.org/2000/svg" xmlns:xlink="http://www.w3.org/1999/xlink" width="149.40496" height="57.41095" viewBox="0,0,149.40496,57.41095"><g transform="translate(-126.34557,-151.29455)"><g data-paper-data="{&quot;isPaintingLayer&quot;:true}" fill-rule="nonzero" stroke-linecap="butt" stroke-linejoin="miter" stroke-miterlimit="10" stroke-dasharray="" stroke-dashoffset="0" style="mix-blend-mode: normal"><path d="M206.99947,201.92922c0,-10.07385 0,-36.01577 0,-42.36813c0,-2.73469 1.67092,-5.51654 3.61181,-5.51654c6.80023,0 46.47286,0 58.76183,0c2.28856,0 3.62742,1.37702 3.62742,2.96168c0,5.12423 0,33.06551 0,44.28428c0,2.88569 -2.12753,4.66499 -5.96938,4.66499c-7.98766,0 -39.16442,0 -53.2263,0c-4.29903,0 -6.80539,-1.52336 -6.80539,-4.02627z" fill="#ff5252" stroke="#000000" stroke-width="5.5"/><text transform="translate(126.59557,186.1768) scale(0.5,0.5)" font-size="40" xml:space="preserve" fill="#ffffff" fill-rule="nonzero" stroke="none" stroke-width="1" stroke-linecap="butt" stroke-linejoin="miter" stroke-miterlimit="10" stroke-dasharray="" stroke-dashoffset="0" font-family="Sans Serif" font-weight="normal" text-anchor="start" style="mix-blend-mode: normal"><tspan x="0" dy="0">ITCH.IO</tspan></text><path d="M221.15148,172.38077c0,-2.76387 0,-6.80679 0,-8.33333c0,-1.16544 2.06305,-2.59259 4.07407,-2.59259c4.32274,0 20.95442,0 28.88889,0c2.59465,0 4.25926,1.91515 4.25926,3.33333c0,1.53148 0,5.07487 0,7.59259c0,1.59461 -1.43655,2.77778 -2.96296,2.77778c-1.13598,0 -3.05242,-2.04825 -6.77927,-2.05214c-1.14079,-0.00119 -2.12208,1.47725 -4.24635,1.82614c-1.60242,0.26318 -3.02914,-1.70283 -4.80155,-1.73279c-2.17458,-0.03676 -4.6289,1.8182 -5.61457,1.73451c-4.60211,-0.39076 -2.29139,-1.68049 -6.05123,-1.68049c-1.50271,0 -2.71846,1.90476 -3.80332,1.90476c-1.84158,0 -2.96296,-1.17339 -2.96296,-2.77778z" fill="#ffffff" stroke="none" stroke-width="0"/><path d="M223.55889,192.39828c0,-4.2205 0,-10.39414 0,-12.72522c0,-1.77965 1.82698,-3.95896 3.60789,-3.95896c3.8281,0 18.55666,0 25.5832,0c2.29775,0 3.77188,2.92449 3.77188,5.09009c0,2.33861 0,7.74946 0,11.59409c0,2.435 -1.27217,4.24174 -2.62392,4.24174c-3.69366,0 -21.04262,0 -27.71513,0c-1.63086,0 -2.62392,-1.79181 -2.62392,-4.24174z" fill="#ffffff" stroke="none" stroke-width="0"/><path d="M245.1225,180.41294c2.29796,0.51066 6.78202,5.50549 6.11257,7.96011c-2.325,8.52501 -6.85296,2.61179 -9.45002,0.5005c-1.16716,-0.94885 -3.0079,-0.21323 -4.51035,-0.14095c-0.2047,0.00985 -0.37425,0.06844 -0.51744,0.16542c-0.0525,1.08576 -0.48981,2.07055 -1.17848,2.82092c-0.42967,1.11041 -1.20396,1.9865 -3.31619,1.4581c-1.41818,0 -2.68314,-0.65604 -3.50795,-1.68119c-0.51817,-0.47981 -0.85769,-1.05301 -0.85769,-1.72301c-0.08776,-0.35076 -0.13436,-0.71784 -0.13436,-1.0958c0,-0.61838 0.12473,-1.20763 0.35041,-1.74396c2.04346,-7.41415 10.07499,-8.06115 17.0095,-6.52015z" fill="#ff5252" stroke="none" stroke-width="0.5"/></g></g></svg>