<svg version="1.1" xmlns="http://www.w3.org/2000/svg" xmlns:xlink="http://www.w3.org/1999/xlink" width="167.2621" height="57.41095" viewBox="0,0,167.2621,57.41095"><g transform="translate(-108.48843,-151.29455)"><g data-paper-data="{&quot;isPaintingLayer&quot;:true}" fill-rule="nonzero" stroke-linecap="butt" stroke-linejoin="miter" stroke-miterlimit="10" stroke-dasharray="" stroke-dashoffset="0" style="mix-blend-mode: normal"><path d="M206.99947,201.92922c0,-10.07385 0,-36.01577 0,-42.36813c0,-2.73469 1.67092,-5.51654 3.61181,-5.51654c6.80023,0 46.47286,0 58.76183,0c2.28856,0 3.62742,1.37702 3.62742,2.96168c0,5.12423 0,33.06551 0,44.28428c0,2.88569 -2.12753,4.66499 -5.96938,4.66499c-7.98766,0 -39.16442,0 -53.2263,0c-4.29903,0 -6.80539,-1.52336 -6.80539,-4.02627z" fill="#ff0000" stroke="#000000" stroke-width="5.5"/><text transform="translate(108.73843,186.17679) scale(0.5,0.5)" font-size="40" xml:space="preserve" fill="#ffffff" fill-rule="nonzero" stroke="none" stroke-width="1" stroke-linecap="butt" stroke-linejoin="miter" stroke-miterlimit="10" stroke-dasharray="" stroke-dashoffset="0" font-family="Sans Serif" font-weight="normal" text-anchor="start" style="mix-blend-mode: normal"><tspan x="0" dy="0">YOUTUBE</tspan></text><path d="M231.00326,189.42205v-18.8441l17.99348,9.42205z" fill="#ffffff" stroke="#000000" stroke-width="2"/></g></g></svg>