<svg version="1.1" xmlns="http://www.w3.org/2000/svg" xmlns:xlink="http://www.w3.org/1999/xlink" width="172.40496" height="57.41095" viewBox="0,0,172.40496,57.41095"><g transform="translate(-103.34557,-151.29455)"><g data-paper-data="{&quot;isPaintingLayer&quot;:true}" stroke-linecap="butt" stroke-linejoin="miter" stroke-miterlimit="10" stroke-dasharray="" stroke-dashoffset="0" style="mix-blend-mode: normal"><path d="M206.99947,201.92923c0,-10.07385 0,-36.01577 0,-42.36813c0,-2.73469 1.67092,-5.51654 3.61181,-5.51654c6.80023,0 46.47286,0 58.76183,0c2.28856,0 3.62742,1.37702 3.62742,2.96168c0,5.12423 0,33.06551 0,44.28428c0,2.88569 -2.12753,4.66499 -5.96938,4.66499c-7.98766,0 -39.16442,0 -53.2263,0c-4.29903,0 -6.80539,-1.52336 -6.80539,-4.02627z" fill="#527bff" fill-rule="nonzero" stroke="#000000" stroke-width="5.5"/><text transform="translate(103.59557,186.17681) scale(0.5,0.5)" font-size="40" xml:space="preserve" fill="#ffffff" fill-rule="nonzero" stroke="none" stroke-width="1" stroke-linecap="butt" stroke-linejoin="miter" stroke-miterlimit="10" stroke-dasharray="" stroke-dashoffset="0" font-family="Sans Serif" font-weight="normal" text-anchor="start" style="mix-blend-mode: normal"><tspan x="0" dy="0">Basketball</tspan></text><path d="M254.22787,187.86094c-0.71184,1.71998 -1.87418,3.21625 -3.36469,4.33134c-0.26025,0.19984 -0.5298,0.39502 -0.80399,0.58092c-3.51482,2.77969 -8.02258,3.98231 -12.45493,3.32286c-4.48006,-0.38573 -8.63015,-2.52352 -10.98637,-6.85486c-3.98718,-5.76137 -3.837,-13.42855 0.37273,-19.02937c4.20974,-5.60081 11.53294,-7.87654 18.17564,-5.64818c6.6427,2.22836 11.11202,8.46001 11.09251,15.46647c-0.00386,2.74001 -0.70262,5.43428 -2.0309,7.83081z" fill="#e6781e" fill-rule="evenodd" stroke="#000000" stroke-width="2"/><g fill="#000000" fill-rule="evenodd" stroke="#000000" stroke-width="1.5"><path d="M240.42056,196.28196h-0.40897h-0.05577c-0.0883,-11.06537 -0.00465,-22.93474 0.06506,-32.48507h0.46474c-0.06971,9.55033 -0.15336,21.4104 -0.06506,32.48507z"/><path d="M256.27271,179.44457c0,0.16266 0,0.32996 0,0.49727h-32.48042c0,-0.16731 0,-0.32997 0,-0.49262z"/><path d="M250.49604,192.47112c-0.13477,0.09759 -0.2649,0.19984 -0.40432,0.29278c-4.7682,-4.80073 -5.70696,-13.12415 -4.04785,-19.32838c0.60918,-2.4401 1.83866,-4.68134 3.56917,-6.50631c0.13013,0.09295 0.26025,0.19519 0.38573,0.29278c-1.7044,1.77483 -2.91414,3.96518 -3.50876,6.35295c-2.10526,7.88658 0.31602,15.1597 4.00602,18.89618z"/><path d="M229.55038,192.86615c-0.13013,-0.10534 -0.25561,-0.21688 -0.37644,-0.33461c3.82943,-3.45764 6.50167,-10.40544 4.7589,-18.51974c-0.54716,-2.62543 -1.74395,-5.07174 -3.48088,-7.11511l0.39038,-0.27884c1.76397,2.09761 2.98066,4.59965 3.54129,7.28242c0.77735,3.73813 0.66432,7.60672 -0.32996,11.29309c-0.88765,3.22062 -2.43057,5.83244 -4.5033,7.6728z"/></g></g></g></svg>