<svg version="1.1" xmlns="http://www.w3.org/2000/svg" xmlns:xlink="http://www.w3.org/1999/xlink" width="131.2621" height="57.41095" viewBox="0,0,131.2621,57.41095"><g transform="translate(-144.48843,-151.29453)"><g data-paper-data="{&quot;isPaintingLayer&quot;:true}" fill-rule="nonzero" stroke-linejoin="miter" stroke-miterlimit="10" stroke-dasharray="" stroke-dashoffset="0" style="mix-blend-mode: normal"><path d="M209.58738,161.87534v-7.87749h62.16832v7.87749z" fill="#65391a" stroke="none" stroke-width="0" stroke-linecap="butt"/><path d="M249.57036,174.13056l3.02975,-12.83238h19.11979l-0.94128,12.83238z" data-paper-data="{&quot;index&quot;:null}" fill="#0ed700" stroke="#000000" stroke-width="0" stroke-linecap="butt"/><path d="M207.29189,174.13056l-0.94128,-13.04528h19.11979l3.02975,13.04528z" fill="#0ed700" stroke="#000000" stroke-width="0" stroke-linecap="butt"/><path d="M207.67623,185.60325l-0.23917,-13.14205h13.17516l3.91255,13.35496z" data-paper-data="{&quot;index&quot;:null}" fill="#0ba500" stroke="#000000" stroke-width="0" stroke-linecap="butt"/><path d="M256.40525,185.81615l3.91255,-13.35496h13.17515l-0.23917,13.14206z" fill="#0ba500" stroke="#000000" stroke-width="0" stroke-linecap="butt"/><path d="M251.91488,205.33569l3.61939,-19.58728h17.24532v17.88404z" data-paper-data="{&quot;index&quot;:null}" fill="#0ed700" stroke="#000000" stroke-width="0" stroke-linecap="butt"/><path d="M207.20479,203.41955v-17.88403h17.24532l3.61939,19.58727z" fill="#0ed700" stroke="#000000" stroke-width="0" stroke-linecap="butt"/><path d="M233.17923,205.12279l6.53744,-19.58727h25.21585l5.29222,19.58727z" fill="#0ba500" stroke="#000000" stroke-width="0" stroke-linecap="butt"/><path d="M208.69513,205.12279l6.53744,-19.58727h25.21585l5.29222,19.58727z" fill="#0ba500" stroke="#000000" stroke-width="0" stroke-linecap="butt"/><path d="M227.21788,205.12279l4.47101,-19.58727h17.24532l3.61939,19.58727z" fill="#0ed700" stroke="#000000" stroke-width="0" stroke-linecap="butt"/><path d="M235.98571,185.60325l5.13363,-13.35496h19.80116l4.1558,13.35496z" fill="#0ed700" stroke="#000000" stroke-width="0" stroke-linecap="butt"/><path d="M215.67262,185.60325l5.09606,-13.35496h19.65624l4.12539,13.35496z" fill="#0ed700" stroke="#000000" stroke-width="0" stroke-linecap="butt"/><path d="M231.92115,185.60325l3.04841,-13.35496h11.75817l2.46777,13.35496z" fill="#0ba500" stroke="#000000" stroke-width="0" stroke-linecap="butt"/><path d="M236.86636,172.21441l4.3156,-11.12913h16.64588l3.49358,11.12913z" fill="#0ba500" stroke="#000000" stroke-width="0" stroke-linecap="butt"/><path d="M220.61298,172.21441l4.12774,-11.12913h15.92129l3.34151,11.12913z" fill="#0ba500" stroke="#000000" stroke-width="0" stroke-linecap="butt"/><path d="M233.47923,172.21441l2.54035,-11.12913h9.79847l2.05648,11.12913z" fill="#0ed700" stroke="#000000" stroke-width="0" stroke-linecap="butt"/><path d="M240,183.40648c-2.70444,0 -4.89682,-1.52513 -4.89682,-3.40648c0,-1.88135 2.19238,-3.40648 4.89682,-3.40648c2.70444,0 4.89682,1.52513 4.89682,3.40648c0,1.88135 -2.19238,3.40648 -4.89682,3.40648z" fill="#000000" stroke="none" stroke-width="0" stroke-linecap="butt"/><path d="M239.94538,180.05431v-26.61315" fill="none" stroke="#ffffff" stroke-width="3.5" stroke-linecap="round"/><path d="M206.99947,201.92921c0,-10.07385 0,-36.01577 0,-42.36813c0,-2.73469 1.67092,-5.51654 3.61181,-5.51654c6.80023,0 46.47286,0 58.76183,0c2.28856,0 3.62742,1.37702 3.62742,2.96168c0,5.12423 0,33.06551 0,44.28428c0,2.88569 -2.12753,4.66499 -5.96938,4.66499c-7.98766,0 -39.16442,0 -53.2263,0c-4.29903,0 -6.80539,-1.52336 -6.80539,-4.02627z" fill="none" stroke="#000000" stroke-width="5.5" stroke-linecap="butt"/><path d="M219.93229,178.03171c0,-2.76323 2.24004,-5.00327 5.00327,-5.00327c2.76323,0 5.00327,2.24004 5.00327,5.00327c0,2.76323 -2.24004,5.00327 -5.00327,5.00327c-2.76323,0 -5.00327,-2.24004 -5.00327,-5.00327z" fill="#ffffff" stroke="#000000" stroke-width="2.5" stroke-linecap="butt"/><text transform="translate(144.73843,184.17677) scale(0.5,0.5)" font-size="40" xml:space="preserve" fill="#ffffff" fill-rule="nonzero" stroke="none" stroke-width="1" stroke-linecap="butt" stroke-linejoin="miter" stroke-miterlimit="10" stroke-dasharray="" stroke-dashoffset="0" font-family="Sans Serif" font-weight="normal" text-anchor="start" style="mix-blend-mode: normal"><tspan x="0" dy="0">GOLF</tspan></text></g></g></svg>